<svg version="1.1" id="Layer_1" xmlns="http://www.w3.org/2000/svg" xmlns:xlink="http://www.w3.org/1999/xlink" x="0px" y="0px"
	 width="100%" viewBox="0 0 1024 560" enable-background="new 0 0 1024 560" xml:space="preserve">
<path fill="#000000" opacity="1.000000" stroke="none" 
	d="
M403.350616,207.759094 
	C418.974457,230.942169 416.363007,267.266571 396.440155,286.570404 
	C385.946381,296.738129 373.020111,302.032837 358.748199,302.819305 
	C342.807129,303.697784 326.786652,303.081818 310.802399,303.263092 
	C306.397797,303.313080 306.665222,300.502289 306.665833,297.578400 
	C306.671295,271.932220 306.658783,246.286026 306.655792,220.639832 
	C306.654510,209.648712 306.720001,198.657104 306.629761,187.666763 
	C306.605316,184.686600 307.376495,182.791534 310.733673,182.870453 
	C328.035248,183.277313 345.391052,181.762527 362.636749,183.710449 
	C379.523285,185.617798 393.172089,193.528290 403.350616,207.759094 
M329.321991,226.499725 
	C329.322266,243.319550 329.404602,260.140076 329.258698,276.958649 
	C329.226654,280.648987 330.507324,282.034271 334.162140,281.944000 
	C341.817993,281.754791 349.482697,281.922882 357.138611,281.735107 
	C363.822662,281.571167 369.846832,279.227509 375.185425,275.263519 
	C387.839478,265.867645 390.628723,252.507156 389.542023,237.917038 
	C388.167542,219.463165 376.555817,207.112671 358.442749,204.030869 
	C349.991730,202.592987 341.501038,203.936813 333.040894,203.421539 
	C330.249878,203.251541 329.272339,204.893692 329.298859,207.514572 
	C329.359406,213.509109 329.320648,219.504654 329.321991,226.499725 
z"/>
<path fill="#000000" opacity="1.000000" stroke="none" 
	d="
M615.960327,302.383606 
	C608.229919,304.117432 600.601685,303.140533 592.993835,303.031342 
	C590.761475,302.999329 589.739502,300.906769 588.561157,299.319153 
	C581.517761,289.829865 574.497253,280.323608 567.462402,270.827972 
	C566.580811,269.638031 565.903809,268.237793 563.820007,267.461761 
	C559.245667,272.415802 553.086853,276.392670 554.256165,285.012512 
	C554.832947,289.264343 554.154419,293.671326 554.429199,297.983521 
	C554.703125,302.282043 552.738525,303.569672 548.803162,303.360382 
	C545.316528,303.174927 541.791138,303.095551 538.320007,303.397430 
	C533.850281,303.786133 532.606628,301.923004 532.631287,297.630096 
	C532.783447,271.154968 532.713196,244.678558 532.712708,218.202576 
	C532.712524,206.879486 532.843567,195.553665 532.623352,184.234741 
	C532.541504,180.027008 534.156982,178.551895 538.184082,178.774323 
	C541.836182,178.976059 545.517517,178.975128 549.169250,178.768417 
	C553.087341,178.546646 554.418884,180.184372 554.393311,184.041351 
	C554.274231,202.024155 554.355347,220.008286 554.364380,237.991943 
	C554.364929,239.157547 554.327759,240.324295 554.367188,241.488480 
	C554.417114,242.958572 554.152344,244.693924 556.030518,245.241150 
	C557.505127,245.670792 558.559021,244.576431 559.449341,243.610199 
	C563.510193,239.203079 567.512390,234.742065 571.542480,230.306534 
	C576.243591,225.132462 580.950928,219.964005 585.657410,214.794785 
	C586.676208,213.675842 587.754700,212.437820 589.301025,212.314636 
	C596.881653,211.710800 604.453613,211.810043 612.546631,212.474823 
	C611.052917,216.891602 607.964417,219.285263 605.557312,222.040451 
	C598.330078,230.312866 590.978455,238.488983 583.373047,246.412384 
	C580.322998,249.589905 580.363770,251.852798 582.936829,255.322586 
	C593.742554,269.894165 604.269287,284.672729 614.866821,299.398071 
	C615.425659,300.174591 615.697205,301.157867 615.960327,302.383606 
z"/>
<path fill="#000000" opacity="1.000000" stroke="none" 
	d="
M650.505188,282.606781 
	C663.817383,288.734344 676.152893,286.311523 685.613953,275.707031 
	C687.545227,273.542328 689.127808,272.965027 691.480591,274.817719 
	C694.220093,276.974945 697.258057,278.695312 699.984314,280.925018 
	C703.161804,283.523743 702.739441,285.575073 700.419861,288.381226 
	C687.778625,303.674011 665.010010,309.117584 644.736145,301.569458 
	C626.821716,294.899780 614.861633,276.712830 615.395630,256.953278 
	C616.090332,231.250015 632.134094,213.568146 657.754761,210.269119 
	C680.839661,207.296616 702.943298,224.782120 705.363098,247.945480 
	C705.725464,251.414902 705.963379,254.897659 706.348755,258.364258 
	C706.824524,262.643066 704.586243,264.052612 700.743896,263.808075 
	C682.782715,262.664978 664.809509,264.396545 646.834290,263.488281 
	C637.395203,263.011353 636.473694,264.995636 641.122437,273.341431 
	C643.289673,277.232300 646.366028,280.191315 650.505188,282.606781 
M676.174011,247.672440 
	C683.266357,247.440399 684.505188,245.234589 680.762451,239.253510 
	C675.612549,231.023758 668.002319,228.057632 658.561035,229.026443 
	C649.735413,229.932083 644.036377,234.971588 640.259033,242.627579 
	C638.375183,246.445694 639.903564,247.737396 643.794556,247.705048 
	C654.278259,247.617889 664.763245,247.674805 676.174011,247.672440 
z"/>
<path fill="#000000" opacity="1.000000" stroke="none" 
	d="
M517.851440,262.534668 
	C515.004456,283.729218 503.988007,297.816040 483.515381,303.039642 
	C464.711853,307.837341 447.586914,303.823639 434.543060,288.820374 
	C421.402863,273.706238 419.330383,256.059479 427.133362,237.952621 
	C435.297119,219.008591 450.673462,210.371872 471.197510,210.573959 
	C494.192871,210.800369 511.293610,223.940796 516.607788,245.752060 
	C517.910583,251.099411 518.432556,256.568787 517.851440,262.534668 
M492.132568,243.471176 
	C487.287415,234.308975 479.664154,229.894699 469.330292,230.338623 
	C459.109741,230.777679 452.223969,236.248886 448.048737,245.248367 
	C444.518219,252.858139 444.642639,260.632507 447.460968,268.547699 
	C452.441559,282.535614 469.549622,288.994904 482.426971,281.570740 
	C494.455750,274.635803 498.643677,259.058289 492.132568,243.471176 
z"/>
<path fill="#000000" opacity="1.000000" stroke="none" 
	d="
M458.669128,311.075500 
	C468.167755,314.099121 477.399506,315.677887 487.006531,314.877502 
	C489.375000,314.680176 491.892517,315.684662 492.326508,318.442535 
	C492.743134,321.089905 490.660461,322.552429 488.647461,323.873077 
	C486.521179,325.268036 483.386230,324.446106 481.238892,327.085144 
	C484.553223,329.316589 487.288849,327.607483 489.853241,326.805054 
	C496.983643,324.573792 502.482574,319.535675 508.554413,315.486237 
	C510.377106,314.270660 511.908722,312.107391 514.395508,315.058990 
	C516.364563,317.395996 518.528076,318.769653 516.191589,322.442932 
	C512.333679,328.508057 506.604034,332.260742 500.704834,335.469574 
	C490.866974,340.820770 480.388916,344.719116 468.836273,344.114563 
	C446.374084,342.939056 426.780487,335.761566 413.949341,316.098328 
	C410.915802,311.449554 407.373444,306.434082 407.381622,300.015503 
	C410.016571,299.102600 411.677338,300.519104 413.038269,302.157867 
	C418.196320,308.369019 425.552002,311.451141 432.212189,315.408600 
	C436.837250,318.156830 442.136841,316.927368 446.475922,314.148926 
	C450.202576,311.762695 453.955017,310.703827 458.669128,311.075500 
z"/>
<path fill="#000000" opacity="1.000000" stroke="none" 
	d="
M732.807861,303.248901 
	C718.209473,302.949829 720.009094,305.360535 719.957947,290.740601 
	C719.874084,266.773804 719.914490,242.806442 719.964355,218.839432 
	C719.978088,212.239166 720.436096,211.901260 727.182190,211.899231 
	C729.512268,211.898544 731.842529,211.886902 734.172302,211.852066 
	C741.715942,211.739258 741.943359,211.882370 741.971130,219.654510 
	C742.060242,244.618790 742.099426,269.583252 742.128784,294.547699 
	C742.139038,303.290649 742.100464,303.290680 732.807861,303.248901 
z"/>
<path fill="#000000" opacity="1.000000" stroke="none" 
	d="
M547.963867,394.646301 
	C547.761414,385.536316 547.643921,376.872559 547.693787,368.209717 
	C547.718689,363.879242 550.184814,362.166687 553.661804,364.520386 
	C555.888489,366.027649 557.160706,365.367767 558.971863,364.532013 
	C563.497803,362.443512 568.023132,362.147949 572.217651,365.275757 
	C574.322266,366.845154 576.038757,366.341888 578.164978,365.275757 
	C588.117798,360.285370 594.490234,363.491455 595.693726,374.438995 
	C596.345703,380.369598 595.980408,386.413269 596.049744,392.406219 
	C596.079895,395.009888 594.983765,396.353394 592.144287,396.346924 
	C589.423462,396.340698 588.070007,395.227142 588.028992,392.561676 
	C587.952148,387.563782 587.948303,382.564728 587.870667,377.566833 
	C587.819641,374.281708 587.605042,370.846954 583.335449,370.478577 
	C579.328918,370.132904 577.285400,372.897888 576.258423,376.304871 
	C574.791138,381.172272 576.146667,386.232422 575.569214,391.209229 
	C575.245422,393.998840 575.861328,396.522675 571.661133,396.392944 
	C567.550171,396.265961 567.810120,393.632050 567.807007,390.896881 
	C567.802063,386.564117 567.881165,382.226715 567.705811,377.900146 
	C567.579712,374.789917 567.798828,371.013062 563.581299,370.425018 
	C559.120789,369.803070 556.841248,372.897156 555.856323,376.709137 
	C554.635315,381.434448 555.507751,386.327454 555.339111,391.143799 
	C555.146362,396.647644 553.678101,397.478699 547.963867,394.646301 
z"/>
<path fill="#000000" opacity="1.000000" stroke="none" 
	d="
M743.659790,379.105103 
	C743.683533,382.931335 741.059753,382.346527 739.024536,382.408356 
	C733.034851,382.590363 727.041382,382.645721 721.049927,382.776611 
	C720.750793,382.783142 720.457031,383.034393 720.162842,383.176270 
	C720.802673,389.923218 727.074280,392.721252 733.218506,388.571472 
	C736.219299,386.544769 738.531494,386.328979 741.225281,388.489105 
	C739.389160,394.517151 731.966553,398.209015 724.650635,396.782898 
	C715.624329,395.023346 710.057983,387.565399 710.865234,378.312683 
	C711.657166,369.235168 718.339600,363.132660 727.552063,363.073914 
	C736.563965,363.016449 742.434814,368.730408 743.659790,379.105103 
M732.601868,376.400757 
	C735.686768,376.414154 735.497986,374.840179 734.162720,372.952057 
	C732.284607,370.296265 729.618225,368.973450 726.392761,369.483002 
	C722.803894,370.050018 720.526855,372.155487 719.811951,375.936951 
	C720.555786,376.240143 720.992676,376.571838 721.429749,376.572052 
	C724.920837,376.573792 728.411865,376.512756 732.601868,376.400757 
z"/>
<path fill="#000000" opacity="1.000000" stroke="none" 
	d="
M440.897034,396.518799 
	C430.910706,392.737549 426.860260,384.426971 429.738403,374.328705 
	C431.940125,366.603729 439.575165,361.844940 447.482605,363.268982 
	C457.675568,365.104706 462.955292,373.058350 461.210602,383.949646 
	C459.769989,392.942841 451.261169,398.357086 440.897034,396.518799 
M452.817291,376.645508 
	C450.479462,370.800323 445.662476,368.681549 441.314575,371.585938 
	C437.037170,374.443176 435.648682,381.101379 438.344116,385.758148 
	C439.993256,388.607239 442.407684,389.954102 445.729614,389.756989 
	C448.897675,389.569000 450.984222,387.885254 452.181580,385.106995 
	C453.239594,382.652039 453.839966,380.076324 452.817291,376.645508 
z"/>
<path fill="#000000" opacity="1.000000" stroke="none" 
	d="
M647.650024,391.214172 
	C640.373596,382.168945 643.327454,367.545532 655.002991,363.907013 
	C662.759827,361.489685 671.280151,364.797516 674.658752,371.494659 
	C678.638062,379.382446 676.606812,389.084778 669.954834,393.963806 
	C663.104858,398.987915 654.522644,398.032776 647.650024,391.214172 
M659.648315,389.729004 
	C664.222168,390.002228 666.735352,387.461273 668.041809,383.437439 
	C669.381958,379.310059 668.576538,375.488037 665.625000,372.362610 
	C662.806030,369.377533 657.608704,369.487000 654.821472,372.305145 
	C649.628235,377.555969 651.845520,387.059113 659.648315,389.729004 
z"/>
<path fill="#000000" opacity="1.000000" stroke="none" 
	d="
M539.451050,391.349487 
	C532.164734,398.427155 522.498657,399.019348 515.806213,393.057373 
	C509.575073,387.506348 508.680664,375.425537 514.011353,368.814148 
	C519.089539,362.516022 529.661072,361.263000 536.674561,366.127930 
	C544.189880,371.340912 545.505554,382.168091 539.451050,391.349487 
M533.183411,373.362030 
	C530.703857,370.178589 527.365723,369.359467 523.836304,370.810333 
	C519.886658,372.433899 518.331360,375.949310 518.354919,380.086670 
	C518.377197,384.003021 519.806335,387.276184 523.510986,389.072205 
	C527.701599,391.103821 532.403870,389.249176 534.352966,384.945526 
	C536.070251,381.153809 535.645508,377.517212 533.183411,373.362030 
z"/>
<path fill="#000000" opacity="1.000000" stroke="none" 
	d="
M368.298218,386.498138 
	C368.582184,387.893616 368.716187,388.905975 369.140045,389.777374 
	C370.209381,391.975769 371.235657,394.465881 368.784943,396.014038 
	C366.190643,397.652924 363.663574,396.579193 361.897095,394.032471 
	C361.626007,393.641663 361.300201,393.288818 361.025696,392.950470 
	C359.415588,392.945465 358.691437,394.272217 357.585571,394.935730 
	C349.099213,400.027191 340.288910,396.166168 339.179810,386.367035 
	C338.472412,380.116760 338.956848,373.732422 338.890747,367.408386 
	C338.861725,364.631378 340.293488,363.618958 342.960480,363.653473 
	C345.553528,363.687073 347.125610,364.605957 347.148346,367.384125 
	C347.189209,372.380005 347.246704,377.376007 347.243195,382.371887 
	C347.240967,385.529846 347.544525,388.676727 351.239227,389.491852 
	C355.252350,390.377258 358.069611,388.254578 359.552948,384.681946 
	C361.738586,379.417755 360.238678,373.808319 360.671906,368.369934 
	C360.824005,366.460632 360.267334,364.133514 363.233734,363.795898 
	C366.083862,363.471527 368.213409,363.995911 368.196289,367.564636 
	C368.166748,373.726440 368.246399,379.888733 368.298218,386.498138 
z"/>
<path fill="#000000" opacity="1.000000" stroke="none" 
	d="
M398.550476,364.107666 
	C402.887482,366.799530 403.879791,370.859253 404.064240,375.082153 
	C404.310883,380.729065 404.070404,386.395630 404.206482,392.049683 
	C404.285614,395.337158 402.795288,396.423248 399.666321,396.360657 
	C396.080139,396.288849 396.433502,394.182739 396.490448,391.630737 
	C396.605133,386.490784 397.110779,381.319672 396.186249,376.199768 
	C395.590363,372.899933 394.586761,369.872314 390.289154,370.294556 
	C386.284607,370.687958 383.703888,373.014954 383.378204,376.932373 
	C382.979706,381.725952 383.145905,386.573242 383.205109,391.395630 
	C383.243347,394.504669 382.524994,396.466034 378.778442,396.388947 
	C375.197449,396.315247 374.771851,394.281403 374.788330,391.487579 
	C374.830475,384.333252 374.716888,377.177185 374.837006,370.024689 
	C374.873138,367.873474 373.789185,364.995697 376.800079,363.964386 
	C379.302063,363.107422 381.713898,363.715546 383.146240,366.280731 
	C388.106750,363.815674 392.866425,361.863068 398.550476,364.107666 
z"/>
<path fill="#000000" opacity="1.000000" stroke="none" 
	d="
M744.203735,190.743164 
	C741.966919,198.795181 738.209656,202.285400 731.721252,202.722977 
	C726.020447,203.107437 720.468872,199.857300 718.408630,194.929245 
	C715.382446,187.690430 718.699280,179.678955 725.904419,176.824142 
	C732.946411,174.033951 740.899536,177.913757 743.403992,185.468002 
	C743.915405,187.010391 743.971313,188.703827 744.203735,190.743164 
z"/>
<path fill="#000000" opacity="1.000000" stroke="none" 
	d="
M687.271179,378.413239 
	C686.914246,383.062958 687.659058,386.900421 691.884888,388.960297 
	C694.752197,390.357910 697.858887,390.453094 700.244568,388.078125 
	C703.492249,384.845062 706.063660,386.352356 708.802063,388.520721 
	C706.128357,395.035431 699.608093,398.280823 692.520264,396.786133 
	C684.276917,395.047729 678.982178,388.594604 678.862915,380.140747 
	C678.738770,371.346191 683.654602,365.256287 692.260620,363.542938 
	C699.610779,362.079590 706.231689,365.109406 708.834412,371.347992 
	C706.303772,372.961945 703.870850,374.204712 700.773987,372.316803 
	C693.888672,368.119354 689.421021,370.046997 687.271179,378.413239 
z"/>
<path fill="#000000" opacity="1.000000" stroke="none" 
	d="
M486.498413,380.055237 
	C488.664093,390.036133 493.218414,392.090851 501.100159,386.932495 
	C503.799164,385.166107 506.188049,386.504242 507.818329,388.114777 
	C509.520630,389.796478 507.412445,391.415619 506.213165,392.683685 
	C502.059753,397.075317 494.767151,398.372681 488.614166,395.800171 
	C481.796936,392.949982 479.083923,387.293671 478.741608,380.372986 
	C478.377686,373.015320 481.915131,367.285065 487.964172,364.677216 
	C496.595154,360.956268 505.535919,363.868103 507.977203,371.417297 
	C505.773285,372.972290 503.538818,373.948914 500.744537,372.553375 
	C492.197479,368.284821 488.775391,370.015808 486.498413,380.055237 
z"/>
<path fill="#000000" opacity="1.000000" stroke="none" 
	d="
M634.752075,368.774719 
	C635.967224,363.770905 638.801392,362.704773 643.064575,364.332062 
	C643.904907,367.276886 642.148254,369.570404 641.303406,371.980743 
	C638.830505,379.035034 636.075317,385.989777 633.517517,393.015137 
	C632.658936,395.373230 631.195557,396.445160 628.658142,396.373688 
	C626.259277,396.306091 623.916931,396.394165 622.912354,393.576538 
	C619.620850,384.345032 616.320618,375.116638 613.063782,365.872925 
	C612.920898,365.467438 613.172607,364.922943 613.253845,364.349670 
	C617.654358,362.674988 620.461792,363.705109 621.925598,368.503937 
	C623.658325,374.184174 625.844421,379.726135 628.264465,386.539978 
	C630.692017,379.925598 632.668274,374.541046 634.752075,368.774719 
z"/>
<path fill="#000000" opacity="1.000000" stroke="none" 
	d="
M420.041748,362.873138 
	C421.115021,363.347687 421.908905,363.655853 422.715912,363.695190 
	C424.716034,363.792603 425.812683,364.733490 425.865723,366.757263 
	C425.918243,368.762543 424.866272,369.969727 422.915436,370.044739 
	C419.702118,370.168274 419.200867,372.097687 419.285950,374.751617 
	C419.397797,378.239563 419.319305,381.733429 419.336975,385.224701 
	C419.351257,388.055756 420.462067,389.845306 423.592804,389.041260 
	C426.271454,388.353333 427.173767,389.713684 427.758514,391.934082 
	C428.399597,394.368256 426.884033,395.201324 425.082306,395.938904 
	C417.517944,399.035614 411.724121,395.295502 411.598053,387.220306 
	C411.540985,383.564880 411.689911,379.892822 411.381042,376.259308 
	C411.167511,373.747406 411.293671,371.082214 408.286285,369.428772 
	C406.384003,368.382904 406.150909,365.330933 408.094574,364.361267 
	C411.455292,362.684570 411.227386,359.812408 411.364380,357.194000 
	C411.517700,354.263519 412.407898,352.888733 415.468262,353.052795 
	C418.529205,353.216888 419.380371,354.920837 419.329773,357.664398 
	C419.299561,359.301147 419.610687,360.944214 420.041748,362.873138 
z"/>
<path fill="#000000" opacity="1.000000" stroke="none" 
	d="
M330.546356,390.274719 
	C325.812012,396.978607 317.225983,399.060242 310.479156,395.477814 
	C306.227997,393.220551 308.820862,390.598633 309.828400,387.961273 
	C310.484497,387.920898 311.011078,387.748962 311.443481,387.882355 
	C321.510193,390.988068 324.755035,388.589020 324.855103,377.830414 
	C324.918549,371.006775 324.903961,364.182037 324.871521,357.358063 
	C324.857941,354.501587 325.511200,352.603577 329.017944,352.593079 
	C332.536987,352.582581 333.172668,354.457825 333.146240,357.338074 
	C333.074402,365.159729 333.195404,372.984772 333.008148,380.802917 
	C332.932800,383.950439 332.217712,387.074463 330.546356,390.274719 
z"/>
<path fill="#000000" opacity="1.000000" stroke="none" 
	d="
M729.637390,357.811157 
	C727.825378,356.237885 726.442017,356.507782 724.938843,357.752075 
	C723.060791,359.306641 720.963196,360.043488 718.122375,358.298828 
	C720.608826,354.972412 722.177063,350.948822 727.107544,350.719543 
	C732.391663,350.473816 734.013489,354.787537 736.970764,358.254181 
	C734.074158,359.645050 731.966187,359.584259 729.637390,357.811157 
z"/>
</svg>